<svg xmlns="http://www.w3.org/2000/svg" width="1200" height="360" viewBox="0 0 1200 360">
  <style>
    .box{fill:#fffdf9;stroke:#8a642c;stroke-width:2;rx:12;ry:12}.t{font:16px Arial,sans-serif;fill:#1d1b18;text-anchor:middle}.s{font:12px Arial,sans-serif;fill:#6d655c;text-anchor:middle}.a{stroke:#51483d;stroke-width:2;marker-end:url(#arrow)}
  </style>
  <defs><marker id="arrow" markerWidth="10" markerHeight="10" refX="9" refY="3" orient="auto"><path d="M0,0 L0,6 L9,3 z" fill="#51483d"/></marker></defs>
  <rect x="25" y="130" width="140" height="75" class="box"/><text x="95" y="160" class="t">Lawyer</text><text x="95" y="182" class="s">Web UI</text>
  <rect x="210" y="130" width="150" height="75" class="box"/><text x="285" y="160" class="t">FastAPI</text><text x="285" y="182" class="s">Upload API</text>
  <rect x="405" y="130" width="160" height="75" class="box"/><text x="485" y="160" class="t">Document Processor</text><text x="485" y="182" class="s">PDF / DOCX / TXT</text>
  <rect x="610" y="130" width="170" height="75" class="box"/><text x="695" y="160" class="t">Case Analyst Agent</text><text x="695" y="182" class="s">Orchestration</text>
  <rect x="825" y="55" width="150" height="75" class="box"/><text x="900" y="85" class="t">RAG Retriever</text><text x="900" y="107" class="s">TF-IDF + cosine</text>
  <rect x="825" y="205" width="150" height="75" class="box"/><text x="900" y="235" class="t">Anthropic Claude</text><text x="900" y="257" class="s">LLM</text>
  <rect x="1020" y="130" width="155" height="75" class="box"/><text x="1098" y="160" class="t">Structured Report</text><text x="1098" y="182" class="s">UI + database</text>
  <line x1="165" y1="168" x2="205" y2="168" class="a"/><line x1="360" y1="168" x2="400" y2="168" class="a"/><line x1="565" y1="168" x2="605" y2="168" class="a"/>
  <line x1="780" y1="150" x2="820" y2="108" class="a"/><line x1="780" y1="185" x2="820" y2="228" class="a"/><line x1="975" y1="92" x2="790" y2="145" class="a"/><line x1="975" y1="242" x2="1015" y2="185" class="a"/>
</svg>
